# xmcd
#
# Track frame offsets: 
#        150
#        13750
#        33162
#        45250
#        63400
#        78790
#        90300
#        104645
#        123170
#        139277
#        156360
#        180235
#
# Disc length: 2698 seconds
#
# Revision: 1
# Processed by: cddbd v1.5.2PL0 Copyright (c) Steve Scherf et al.
# Submitted via: ExactAudioCopy v0.95a4
#
DISCID=8a0a880c
DTITLE=Travis Tritt - The Essentials: Travis Tritt
DYEAR=2003
DGENRE=Country
TTITLE0=T-R-O-U-B-L-E
TTITLE1=Foolish Pride
TTITLE2=The Whiskey Ain't Workin' (with Marty Stuart)
TTITLE3=Help Me Hold On
TTITLE4=More Than You'll Ever Know
TTITLE5=Here's A Quarter (Call Someone Who Cares)
TTITLE6=Country Club
TTITLE7=I'm Gonna Be Somebody
TTITLE8=Can I Trust You With My Heart
TTITLE9=Anymore
TTITLE10=Drift Off To Dream
TTITLE11=Lord Have Mercy On The Working Man
EXTD=
EXTT0=
EXTT1=
EXTT2=
EXTT3=
EXTT4=
EXTT5=
EXTT6=
EXTT7=
EXTT8=
EXTT9=
EXTT10=
EXTT11=
PLAYORDER=
